<?xml version="1.0" standalone="no"?><!DOCTYPE svg PUBLIC "-//W3C//DTD SVG 1.1//EN" "http://www.w3.org/Graphics/SVG/1.1/DTD/svg11.dtd"><svg t="1710090978075" class="icon" viewBox="0 0 1056 1024" version="1.1" xmlns="http://www.w3.org/2000/svg" p-id="9298" xmlns:xlink="http://www.w3.org/1999/xlink" width="206.25" height="200"><path d="M589.575758 497.918448 217.212121 497.918448C200.083394 497.918448 186.181818 483.985842 186.181818 466.795055 186.181818 449.604267 200.083394 435.671661 217.212121 435.671661L589.575758 435.671661C606.704485 435.671661 620.606061 449.604267 620.606061 466.795055 620.606061 483.985842 606.704485 497.918448 589.575758 497.918448M527.515152 622.443055 217.212121 622.443055C200.083394 622.443055 186.181818 608.510448 186.181818 591.28863 186.181818 574.097842 200.083394 560.165236 217.212121 560.165236L527.515152 560.165236C544.643879 560.165236 558.545455 574.097842 558.545455 591.28863 558.545455 608.510448 544.643879 622.443055 527.515152 622.443055M713.69697 248.900267 93.090909 248.900267C41.673697 248.900267 0 290.698085 0 342.301479L0 777.873842C0 829.446206 41.673697 871.244024 93.090909 871.244024L155.368727 871.244024 155.865212 938.828024C164.770909 977.491782 208.740848 1023.820024 282.344727 975.133479L398.739394 871.244024 713.69697 871.244024C765.083152 871.244024 806.787879 829.446206 806.787879 777.873842L806.787879 342.301479C806.787879 290.698085 765.083152 248.900267 713.69697 248.900267ZM961.939394 0 403.393939 0C351.976727 0 310.30303 41.797818 310.30303 93.370182L310.30303 186.678303 372.363636 186.678303 713.69697 186.305939C841.852121 187.733333 868.848485 307.075879 868.848485 341.457455L868.848485 527.111758 868.848485 589.358545 961.939394 589.358545C1013.325576 589.358545 1055.030303 547.560727 1055.030303 495.988364L1055.030303 93.370182C1055.030303 41.797818 1013.325576 0 961.939394 0Z" fill="#000000" p-id="9299"></path></svg>