<?xml version="1.0" standalone="no"?><!DOCTYPE svg PUBLIC "-//W3C//DTD SVG 1.1//EN" "http://www.w3.org/Graphics/SVG/1.1/DTD/svg11.dtd"><svg t="1710136421016" class="icon" viewBox="0 0 1024 1024" version="1.1" xmlns="http://www.w3.org/2000/svg" p-id="6107" xmlns:xlink="http://www.w3.org/1999/xlink" width="200" height="200"><path d="M512 512m-512 0a512 512 0 1 0 1024 0 512 512 0 1 0-1024 0Z" fill="#E81118" opacity=".76" p-id="6108"></path><path d="M656.97792 307.2h-289.95584a92.54912 92.54912 0 0 0-92.54912 92.5696v213.77024a92.63104 92.63104 0 0 0 92.63104 92.61056h225.11616a157.16352 157.16352 0 0 0 157.184-157.16352v-149.36064a92.42624 92.42624 0 0 0-92.42624-92.42624z m-12.43136 132.97664a19.00544 19.00544 0 0 1 19.00544 18.98496 19.06688 19.06688 0 0 1-5.57056 13.45536 18.98496 18.98496 0 0 1-13.43488 5.55008 19.00544 19.00544 0 0 1-18.98496-19.00544 19.00544 19.00544 0 0 1 18.92352-18.98496z m-268.1856 0h176.128a19.00544 19.00544 0 0 1 19.00544 18.98496 19.00544 19.00544 0 0 1-19.00544 19.00544h-176.128a19.00544 19.00544 0 0 1-19.00544-19.00544 19.00544 19.00544 0 0 1 19.0464-18.98496z m271.13472 132.97664h-271.09376a19.00544 19.00544 0 0 1-19.00544-19.00544 19.00544 19.00544 0 0 1 19.00544-18.98496h271.13472a19.00544 19.00544 0 0 1 19.00544 18.98496 19.00544 19.00544 0 0 1-19.08736 19.00544z" fill="#FFFFFF" p-id="6109"></path></svg>