<?xml version="1.0" standalone="no"?><!DOCTYPE svg PUBLIC "-//W3C//DTD SVG 1.1//EN" "http://www.w3.org/Graphics/SVG/1.1/DTD/svg11.dtd"><svg t="1710597537570" class="icon" viewBox="0 0 1024 1024" version="1.1" xmlns="http://www.w3.org/2000/svg" p-id="2893" xmlns:xlink="http://www.w3.org/1999/xlink" width="200" height="200"><path d="M133.851429 413.165714m21.12 0l253.348571 0q21.12 0 21.12 21.12l0 141.805715q0 21.12-21.12 21.12l-253.348571 0q-21.12 0-21.12-21.12l0-141.805715q0-21.12 21.12-21.12Z" fill="#2C9DFB" p-id="2894"></path><path d="M660.388571 459.885714m8.32 0l217.691429 0q8.32 0 8.32 8.32l0 87.588572q0 8.32-8.32 8.32l-217.691429 0q-8.32 0-8.32-8.32l0-87.588572q0-8.32 8.32-8.32Z" fill="#2C9DFB" p-id="2895"></path><path d="M660.388571 177.371429m8.32 0l217.691429 0q8.32 0 8.32 8.32l0 87.588571q0 8.32-8.32 8.32l-217.691429 0q-8.32 0-8.32-8.32l0-87.588571q0-8.32 8.32-8.32Z" fill="#2C9DFB" p-id="2896"></path><path d="M932.571429 0H91.428571A91.428571 91.428571 0 0 0 0 91.428571v841.142858a91.428571 91.428571 0 0 0 91.428571 91.428571h841.142858a91.428571 91.428571 0 0 0 91.428571-91.428571V91.428571a91.428571 91.428571 0 0 0-91.428571-91.428571z m0 829.165714a44.891429 44.891429 0 0 1-44.891429 44.891429H669.622857a44.891429 44.891429 0 0 1-44.891428-44.891429v-46.354285c-179.748571-8.137143-235.52-130.194286-243.108572-149.12h-226.742857a57.691429 57.691429 0 0 1-57.6-57.6V434.194286a57.691429 57.691429 0 0 1 57.6-57.6h217.691429a19.2 19.2 0 0 1 0.64-9.142857c2.011429-6.034286 51.474286-145.28 250.605714-158.811429v-22.948571a44.891429 44.891429 0 0 1 44.891428-44.891429H886.857143a44.891429 44.891429 0 0 1 44.891428 44.891429v87.588571A44.891429 44.891429 0 0 1 886.857143 318.171429H668.708571a44.891429 44.891429 0 0 1-44.891428-44.891429v-27.885714c-158.902857 11.885714-207.725714 113.645714-214.948572 131.2a57.691429 57.691429 0 0 1 57.417143 57.6v52.662857h157.531429v-18.285714a44.891429 44.891429 0 0 1 44.891428-44.891429H886.857143a44.891429 44.891429 0 0 1 44.891428 44.891429v87.588571A44.891429 44.891429 0 0 1 886.857143 600.685714H668.708571a44.891429 44.891429 0 0 1-44.891428-44.891428v-32.365715H466.285714V576a57.6 57.6 0 0 1-44.617143 56.045714c16.64 31.36 70.582857 107.428571 203.428572 114.102857v-4.662857a44.891429 44.891429 0 0 1 44.891428-44.891428h217.417143a44.891429 44.891429 0 0 1 45.165715 44.982857z" fill="#2C9DFB" p-id="2897"></path><path d="M661.302857 733.257143m8.32 0l217.691429 0q8.32 0 8.32 8.32l0 87.588571q0 8.32-8.32 8.32l-217.691429 0q-8.32 0-8.32-8.32l0-87.588571q0-8.32 8.32-8.32Z" fill="#2C9DFB" p-id="2898"></path></svg>