<?xml version="1.0" standalone="no"?><!DOCTYPE svg PUBLIC "-//W3C//DTD SVG 1.1//EN" "http://www.w3.org/Graphics/SVG/1.1/DTD/svg11.dtd"><svg t="1710089927265" class="icon" viewBox="0 0 1024 1024" version="1.1" xmlns="http://www.w3.org/2000/svg" p-id="4883" xmlns:xlink="http://www.w3.org/1999/xlink" width="200" height="200"><path d="M830.976 57.344H197.632c-77.312 0-140.8 63.488-140.8 140.8v632.832c0 77.312 63.488 140.8 140.8 140.8h632.832c77.312 0 140.8-63.488 140.8-140.8V197.632c0.512-77.312-62.976-140.288-140.288-140.288zM374.272 777.216c0 18.432-6.656 34.304-19.968 48.128-12.8 12.8-28.672 19.456-47.104 19.456v-301.568l-84.48 212.992c-18.432-7.68-31.232-20.48-38.912-38.912-7.68-18.432-7.168-36.864 0.512-55.296l91.136-214.016h-97.28c0-18.432 6.656-34.304 19.456-47.104 13.312-13.312 29.184-19.968 48.128-19.968h61.44V259.584H187.904c0-18.432 6.656-34.304 19.968-48.128 12.8-12.8 28.672-19.456 47.104-19.456h232.448c0 18.432-6.656 34.304-19.456 47.104-13.312 13.312-29.184 19.968-48.128 19.968h-46.592v121.344h125.44c0 18.432-6.656 34.304-19.968 48.128-12.8 12.8-28.672 19.456-47.104 19.456H374.272v329.216z m66.56-111.616l-50.176-103.424c-8.704-16.384-9.728-33.28-3.584-50.688 6.144-17.92 17.408-30.72 34.304-38.912l50.688 103.424c8.192 16.384 9.216 33.28 3.072 50.688-6.144 17.92-17.408 31.232-34.304 38.912z m358.912 165.376c-16.384-9.216-27.136-22.528-32.256-40.448l-3.584-12.8-293.888 24.064c-0.512-9.728 0.512-19.456 3.584-29.184L609.28 235.52c4.608-18.432 14.848-32.256 30.72-41.984 15.872-9.216 33.28-11.776 51.712-7.68l-136.704 541.696 191.488-14.336L675.84 466.944c17.92-5.12 35.328-3.072 51.712 6.144 15.872 9.216 26.624 22.528 31.232 40.448l92.16 324.096c-17.92 4.608-34.816 2.56-51.2-6.656z" p-id="4884"></path></svg>