<?xml version="1.0" standalone="no"?><!DOCTYPE svg PUBLIC "-//W3C//DTD SVG 1.1//EN" "http://www.w3.org/Graphics/SVG/1.1/DTD/svg11.dtd"><svg t="1710159735938" class="icon" viewBox="0 0 1033 1024" version="1.1" xmlns="http://www.w3.org/2000/svg" p-id="11479" xmlns:xlink="http://www.w3.org/1999/xlink" width="201.7578125" height="200"><path d="M47.887763 47.089634h934.609509V981.699143H47.887763z" fill="#FFFFFF" p-id="11480"></path><path d="M815.688231 763.011691c-3.990647-1.596259-7.981294-2.394388-11.971941-2.394388h-17.558847L539.535464 161.222136c-6.385035-13.5682-22.347623-19.953235-36.713952-14.366329-6.385035 2.394388-11.173811 7.981294-14.366329 14.366329L243.429462 760.617303h-18.356976c-11.173811 0-20.751364 5.586906-23.943881 15.164458-6.385035 14.366329 0.798129 30.328917 14.366329 35.915823 3.192518 1.596259 7.183164 2.394388 10.375682 2.394388h79.014809c13.5682 0 25.54014-8.779423 27.136399-21.549493 2.394388-14.366329-7.981294-27.136399-21.549494-29.530788l50.282152-122.113795H582.634451l47.887763 122.113795c-14.366329 2.394388-23.943882 15.164458-21.549494 29.530788 2.394388 13.5682 14.366329 21.549493 27.136399 21.549493h167.607171c11.173811 0 20.751364-5.586906 23.943881-15.164458 7.183164-13.5682 1.596259-29.530787-11.97194-35.915823zM379.111458 585.826968l90.18862-219.485581 90.18862 219.485581H379.111458z" fill="#B8482C" p-id="11481"></path><path d="M0 0h129.29696v129.29696H0zM901.886204 0h129.29696v129.29696H901.886204zM129.29696 44.695246h47.887763v39.906469h-47.887763zM757.424786 84.601715H660.85113v-39.906469h96.573656v39.906469z m-193.945441 0H466.90569v-39.906469h96.573655v39.906469z m-193.147311 0H273.758379v-39.906469h96.573655v39.906469zM853.998441 44.695246h47.887763v39.906469h-47.887763zM0 894.70304h129.29696v129.29696H0zM901.886204 894.70304h129.29696v129.29696H901.886204zM129.29696 939.398285h47.887763v39.906469h-47.887763zM757.424786 979.304754H660.85113v-39.906469h96.573656v39.906469z m-193.945441 0H466.90569v-39.906469h96.573655v39.906469z m-193.147311 0H273.758379v-39.906469h96.573655v39.906469zM853.998441 939.398285h47.887763v39.906469h-47.887763z" fill="#666666" p-id="11482"></path><path d="M44.695246 124.508184h39.906469v47.887763h-39.906469zM84.601715 752.636009h-39.906469V656.062354h39.906469v96.573655z m0-193.94544h-39.906469V462.116913h39.906469V558.690569z m0-193.147311h-39.906469V268.969602h39.906469v96.573656zM44.695246 849.209665h39.906469v47.887763h-39.906469z" fill="#666666" p-id="11483"></path><path d="M946.58145 128.498831h39.906469v47.887763h-39.906469zM986.487919 756.626656h-39.906469V660.053001h39.906469v96.573655z m0-193.94544h-39.906469V466.10756h39.906469v96.573656z m0-193.147311h-39.906469V272.960249h39.906469v96.573656zM946.58145 853.200312h39.906469v47.887763h-39.906469z" fill="#666666" p-id="11484"></path></svg>