<?xml version="1.0" standalone="no"?><!DOCTYPE svg PUBLIC "-//W3C//DTD SVG 1.1//EN" "http://www.w3.org/Graphics/SVG/1.1/DTD/svg11.dtd"><svg t="1710168258035" class="icon" viewBox="0 0 1024 1024" version="1.1" xmlns="http://www.w3.org/2000/svg" p-id="6916" xmlns:xlink="http://www.w3.org/1999/xlink" width="200" height="200"><path d="M798.958 310.882c0 154.884-136.38 277.628-367.78 277.628l-67.454 0-51.69 226.262L149.568 814.772 308.25 100l269.292 0C720.378 100 798.958 189.952 798.958 310.882zM628.498 315.536c0-64.872-53.504-82.086-115.692-82.086l-71.73 0-47.52 214.096 63.824 0C550.136 447.544 628.498 411.102 628.498 315.536zM845.694 280.804c30.696 242.196-198.462 366.58-437.898 363.248l-52.278 222.428-112.508 0L230.306 924l173.818 0 50.19-222.092C804.306 691.334 938.974 436 845.694 280.804z" fill="#3F3F3F" p-id="6917"></path></svg>