<?xml version="1.0" standalone="no"?><!DOCTYPE svg PUBLIC "-//W3C//DTD SVG 1.1//EN" "http://www.w3.org/Graphics/SVG/1.1/DTD/svg11.dtd"><svg t="1710165606849" class="icon" viewBox="0 0 1024 1024" version="1.1" xmlns="http://www.w3.org/2000/svg" p-id="2369" xmlns:xlink="http://www.w3.org/1999/xlink" width="200" height="200"><path d="M511.13472 29.62944C245.19168 29.62944 28.8256 245.99552 28.8256 511.94368s216.36608 482.30912 482.30912 482.30912c265.94816 0 482.31424-216.36096 482.31424-482.30912-0.00512-265.94816-216.3712-482.31424-482.31424-482.31424z m0 893.16864c-226.55488 0-410.85952-184.29952-410.85952-410.85952 0-226.55488 184.30464-410.85952 410.85952-410.85952 226.56 0 410.85952 184.30464 410.85952 410.85952-0.00512 226.56-184.30464 410.85952-410.85952 410.85952z" fill="#DB007A" p-id="2370"></path><path d="M350.36672 333.30176H296.77568v89.3184h-35.72736v107.18208h35.72736v160.768h53.59104v-160.768h35.72736V422.62016h-35.72736V333.30176zM546.8672 333.30176H493.27616v196.49536h-35.72736v107.18208h35.72736v53.59104h53.59104V636.9792h35.72736v-107.18208h-35.72736V333.30176zM743.36256 333.30176h-53.59104v89.3184h-35.72736v107.18208h35.72736v160.768h53.59104v-160.768h35.73248V422.62016h-35.73248V333.30176z" fill="#DB007A" p-id="2371"></path></svg>