<?xml version="1.0" standalone="no"?><!DOCTYPE svg PUBLIC "-//W3C//DTD SVG 1.1//EN" "http://www.w3.org/Graphics/SVG/1.1/DTD/svg11.dtd"><svg t="1710137745981" class="icon" viewBox="0 0 1024 1024" version="1.1" xmlns="http://www.w3.org/2000/svg" p-id="8158" xmlns:xlink="http://www.w3.org/1999/xlink" width="200" height="200"><path d="M128 0h768Q1024 0 1024 128v768q0 128-128 128h-768Q0 1024 0 896v-768Q0 0 128 0z" fill="#2CB8C4" p-id="8159"></path><path d="M827.076923 621.292308a95.901538 95.901538 0 0 0-4.726154 11.224615A78.769231 78.769231 0 0 1 748.307692 693.366154H275.692308a78.769231 78.769231 0 0 1-74.24-60.849231 112.64 112.64 0 0 0-4.726154-11.224615V271.163077A85.661538 85.661538 0 0 1 281.009231 196.923077h461.981538a79.950769 79.950769 0 0 1 81.329231 67.544615c0 2.166154 1.772308 4.332308 2.756923 6.498462v350.326154zM512 242.412308H284.16c-35.052308 0-47.458462 14.178462-47.852308 53.956923v297.353846c0 39.384615 12.406154 54.153846 47.655385 54.153846h456.073846c34.461538 0 47.064615-14.178462 47.064615-53.366154V295.384615c0-39.384615-13.390769-53.366154-47.064615-53.366153-75.421538 0.393846-151.433846 0.393846-228.036923 0.393846zM315.076923 827.076923v-42.535385h118.153846v-44.701538h157.538462v42.732308h118.153846V827.076923z" fill="#FFFFFF" p-id="8160"></path><path d="M550.203077 602.978462h-76.209231V333.587692h76.209231z m157.538461-179.003077v177.230769h-76.20923v-177.230769z m-315.076923 179.003077h-75.815384v-133.71077h75.815384z" fill="#FFFFFF" p-id="8161"></path></svg>