<?xml version="1.0" standalone="no"?><!DOCTYPE svg PUBLIC "-//W3C//DTD SVG 1.1//EN" "http://www.w3.org/Graphics/SVG/1.1/DTD/svg11.dtd"><svg t="1710089778506" class="icon" viewBox="0 0 1024 1024" version="1.1" xmlns="http://www.w3.org/2000/svg" p-id="4748" xmlns:xlink="http://www.w3.org/1999/xlink" width="200" height="200"><path d="M837.404444 438.613333h-105.813333V219.591111a219.591111 219.591111 0 1 0-439.182222 0v219.022222H187.164444A77.368889 77.368889 0 0 0 109.795556 515.982222v430.648889A77.368889 77.368889 0 0 0 187.164444 1024h650.24a77.368889 77.368889 0 0 0 76.8-77.368889V515.982222a77.368889 77.368889 0 0 0-76.8-77.368889z m-254.862222 262.826667a73.386667 73.386667 0 0 1-34.133333 42.666667v74.524444a36.408889 36.408889 0 0 1-72.817778 0v-74.524444a73.386667 73.386667 0 0 1 56.888889-133.688889 73.955556 73.955556 0 0 1 50.062222 91.022222zM365.795556 438.613333V219.591111a146.204444 146.204444 0 0 1 292.408888 0v219.022222z" p-id="4749"></path></svg>