<?xml version="1.0" standalone="no"?><!DOCTYPE svg PUBLIC "-//W3C//DTD SVG 1.1//EN" "http://www.w3.org/Graphics/SVG/1.1/DTD/svg11.dtd"><svg t="1711509327299" class="icon" viewBox="0 0 1024 1024" version="1.1" xmlns="http://www.w3.org/2000/svg" p-id="7617" xmlns:xlink="http://www.w3.org/1999/xlink" width="200" height="200"><path d="M927.018667 480h-226.048a190.634667 190.634667 0 0 0-53.504-103.509333A190.634667 190.634667 0 0 0 544 322.986667V96.981333c104.661333 10.026667 192.170667 50.176 262.485333 120.533334 70.357333 70.314667 110.506667 157.824 120.533334 262.485333z m0 64c-10.026667 104.661333-50.176 192.170667-120.533334 262.485333-70.314667 70.357333-157.824 110.506667-262.485333 120.533334v-226.048a190.634667 190.634667 0 0 0 103.466667-53.504 190.634667 190.634667 0 0 0 53.504-103.466667h226.048z m-830.037334 0H322.986667c7.381333 40.661333 25.173333 75.136 53.504 103.466667a190.634667 190.634667 0 0 0 103.509333 53.504v226.048c-104.661333-10.026667-192.170667-50.176-262.485333-120.533334-70.357333-70.314667-110.506667-157.824-120.533334-262.485333z m0-64c10.026667-104.661333 50.176-192.170667 120.533334-262.485333 70.314667-70.357333 157.824-110.506667 262.485333-120.533334V322.986667a190.634667 190.634667 0 0 0-103.509333 53.504A190.634667 190.634667 0 0 0 322.986667 480H96.981333z" fill="#13227a" fill-opacity=".65" p-id="7618"></path></svg>